<?xml version="1.0" encoding="UTF-8" standalone="no"?>
<svg
   viewBox="0 0 384 512"
   version="1.1"
   id="svg866"
   sodipodi:docname="cross-solid.svg"
   inkscape:version="1.1.2 (0a00cf5339, 2022-02-04, custom)"
   xmlns:inkscape="http://www.inkscape.org/namespaces/inkscape"
   xmlns:sodipodi="http://sodipodi.sourceforge.net/DTD/sodipodi-0.dtd"
   xmlns="http://www.w3.org/2000/svg"
   xmlns:svg="http://www.w3.org/2000/svg">
  <defs
     id="defs870" />
  <sodipodi:namedview
     id="namedview868"
     pagecolor="#ffffff"
     bordercolor="#666666"
     borderopacity="1.0"
     inkscape:pageshadow="2"
     inkscape:pageopacity="0.0"
     inkscape:pagecheckerboard="0"
     showgrid="false"
     inkscape:zoom="1.5761719"
     inkscape:cx="191.92069"
     inkscape:cy="256"
     inkscape:window-width="1894"
     inkscape:window-height="1022"
     inkscape:window-x="2570"
     inkscape:window-y="42"
     inkscape:window-maximized="1"
     inkscape:current-layer="svg866" />
  <!--! Font Awesome Pro 6.0.0 by @fontawesome - https://fontawesome.com License - https://fontawesome.com/license (Commercial License) Copyright 2022 Fonticons, Inc. -->
  <path
     d="M383.1 160v64c0 17.62-14.37 32-31.1 32h-96v224c0 17.62-14.38 32-31.1 32H160c-17.62 0-32-14.38-32-32V256h-96C14.37 256-.0008 241.6-.0008 224V160c0-17.62 14.38-32 32-32h96V32c0-17.62 14.38-32 32-32h64c17.62 0 31.1 14.38 31.1 32v96h96C369.6 128 383.1 142.4 383.1 160z"
     id="path864"
     style="fill:#862e9c;fill-opacity:1" />
</svg>
