<?xml version="1.0" standalone="no"?>
<!DOCTYPE svg PUBLIC "-//W3C//DTD SVG 20010904//EN"
 "http://www.w3.org/TR/2001/REC-SVG-20010904/DTD/svg10.dtd">
<svg version="1.0" xmlns="http://www.w3.org/2000/svg"
 width="1024.000000pt" height="1024.000000pt" viewBox="0 0 1024.000000 1024.000000"
 preserveAspectRatio="xMidYMid meet">
<metadata>
Created by potrace 1.14, written by Peter Selinger 2001-2017
</metadata>
<g transform="translate(0.000000,1024.000000) scale(0.100000,-0.100000)"
fill="#000000" stroke="none">
<path d="M4345 10225 c-33 -7 -81 -22 -108 -34 -26 -11 -49 -20 -52 -21 -3 0
-29 -16 -58 -36 -50 -35 -117 -99 -166 -160 -31 -39 -89 -161 -96 -203 -3 -19
-8 -39 -12 -44 -3 -5 -7 -36 -9 -68 -1 -32 -6 -64 -9 -69 -3 -6 -2 -10 4 -10
6 0 6 -11 1 -30 -5 -17 -5 -30 0 -30 5 0 5 -13 0 -30 -5 -17 -5 -30 0 -30 5 0
5 -13 0 -30 -5 -17 -5 -30 0 -30 5 0 5 -13 0 -30 -5 -17 -5 -30 0 -30 5 0 5
-13 0 -30 -5 -17 -5 -30 0 -30 5 0 5 -13 0 -30 -5 -17 -5 -30 0 -30 5 0 5 -13
0 -30 -5 -16 -6 -30 -2 -30 8 0 7 -68 -1 -76 -3 -3 -2 -17 3 -30 6 -14 6 -24
0 -24 -5 0 -5 -12 0 -30 5 -17 5 -30 0 -30 -5 0 -5 -13 0 -30 5 -17 5 -30 0
-30 -5 0 -5 -13 0 -30 5 -17 5 -30 0 -30 -5 0 -5 -13 0 -30 5 -17 5 -30 0 -30
-5 0 -5 -13 0 -30 5 -17 5 -30 0 -30 -5 0 -5 -13 0 -30 5 -17 5 -30 0 -30 -5
0 -5 -13 0 -30 5 -17 5 -30 0 -30 -5 0 -5 -13 0 -30 5 -17 5 -30 0 -30 -5 0
-5 -13 0 -30 5 -17 5 -30 0 -30 -5 0 -5 -13 0 -30 5 -17 5 -30 0 -30 -5 0 -5
-13 0 -30 5 -17 5 -30 0 -30 -5 0 -5 -13 0 -30 5 -17 5 -30 0 -30 -5 0 -5 -13
0 -30 5 -17 5 -30 0 -30 -5 0 -5 -13 0 -30 5 -17 5 -30 0 -30 -5 0 -5 -13 0
-30 5 -17 5 -30 0 -30 -5 0 -5 -13 0 -30 5 -17 5 -30 0 -30 -5 0 -5 -13 0 -30
5 -17 5 -30 0 -30 -5 0 -5 -13 0 -30 5 -17 5 -30 0 -30 -5 0 -5 -13 0 -30 5
-17 5 -30 0 -30 -5 0 -5 -12 -1 -28 5 -15 5 -37 0 -49 -5 -13 -4 -25 1 -28 6
-3 6 -15 0 -30 -5 -13 -6 -27 -1 -29 5 -3 6 -17 4 -31 -4 -19 -9 -23 -22 -15
-9 5 -23 5 -31 0 -7 -4 -24 -4 -36 0 -14 6 -26 5 -29 0 -3 -6 -15 -6 -30 0
-14 5 -27 5 -30 0 -3 -5 -18 -5 -35 0 -17 5 -30 5 -30 0 0 -5 -13 -5 -30 0
-16 5 -30 6 -30 2 0 -4 -16 -7 -35 -7 -19 0 -35 3 -35 7 0 4 -13 3 -30 -2 -17
-5 -30 -5 -30 0 0 5 -13 5 -30 0 -17 -5 -30 -5 -30 0 0 5 -13 5 -30 0 -17 -5
-30 -5 -30 0 0 5 -13 5 -30 0 -17 -5 -30 -5 -30 0 0 5 -13 5 -30 0 -17 -5 -30
-5 -30 0 0 5 -13 5 -30 0 -17 -5 -30 -5 -30 0 0 5 -13 5 -30 0 -17 -5 -30 -5
-30 0 0 5 -13 5 -30 0 -17 -5 -30 -5 -30 0 0 5 -13 5 -30 0 -16 -5 -30 -6 -30
-2 0 4 -43 7 -95 7 -52 0 -95 -3 -95 -7 0 -4 -13 -3 -30 2 -17 5 -30 5 -30 0
0 -5 -13 -5 -29 0 -15 4 -34 4 -42 0 -7 -5 -20 -5 -29 0 -9 5 -22 5 -30 0 -8
-5 -21 -5 -30 0 -9 5 -22 5 -30 0 -8 -5 -21 -5 -30 0 -9 5 -22 5 -30 0 -8 -5
-21 -5 -30 0 -9 5 -22 5 -30 0 -8 -5 -21 -5 -30 0 -9 5 -22 5 -30 0 -8 -5 -21
-5 -30 0 -9 5 -22 5 -30 0 -8 -5 -21 -5 -30 0 -9 5 -22 5 -30 0 -8 -5 -21 -5
-30 0 -9 5 -22 5 -30 0 -8 -5 -21 -5 -30 0 -8 4 -22 4 -31 0 -8 -5 -21 -5 -29
0 -7 4 -24 4 -36 0 -14 -6 -26 -5 -29 0 -3 6 -15 6 -30 0 -15 -6 -27 -6 -30 1
-4 5 -10 7 -15 4 -5 -3 -29 -8 -52 -10 -94 -10 -202 -48 -278 -99 -42 -29
-137 -118 -170 -161 -42 -55 -96 -180 -108 -250 -9 -50 -9 -1477 -1 -1525 10
-54 38 -129 72 -193 31 -59 154 -197 175 -197 7 0 12 -4 12 -9 0 -12 106 -66
179 -91 35 -12 100 -23 143 -26 44 -2 84 -7 90 -10 7 -4 8 -2 4 4 -5 9 -1 9
16 3 15 -5 31 -5 41 0 9 6 17 6 17 2 0 -10 41 -10 57 0 7 4 14 3 18 -2 3 -6
15 -7 28 -2 12 5 31 5 42 1 11 -4 25 -3 32 2 7 5 14 5 17 -1 4 -6 16 -7 29 -2
12 5 31 5 42 1 11 -4 28 -3 38 2 9 5 17 5 17 1 0 -10 41 -10 57 0 7 4 14 3 18
-2 3 -6 15 -7 28 -2 12 5 31 5 42 1 11 -4 25 -3 32 2 7 5 14 5 17 -1 4 -6 16
-7 29 -2 12 5 31 5 42 1 11 -4 28 -3 38 2 9 5 17 5 17 1 0 -10 41 -10 57 0 7
4 14 3 18 -2 3 -6 15 -7 28 -2 12 5 31 5 42 1 11 -4 25 -3 32 2 7 5 14 5 17
-1 4 -6 16 -7 29 -2 12 5 31 5 42 1 11 -4 28 -3 38 2 9 5 17 5 17 1 0 -10 41
-10 57 0 7 4 14 3 18 -2 3 -6 15 -7 28 -2 12 5 31 5 42 1 11 -4 25 -3 32 2 7
5 14 5 17 -1 4 -6 16 -7 29 -2 12 5 31 5 42 1 11 -4 28 -3 38 2 9 5 17 5 17 1
0 -10 41 -10 57 0 7 4 14 3 18 -2 3 -6 15 -7 28 -2 12 5 31 5 42 1 11 -4 25
-3 32 2 7 5 14 5 17 -1 4 -6 16 -7 29 -2 12 5 31 5 42 1 11 -4 28 -3 38 2 9 5
17 5 17 1 0 -4 14 -8 30 -8 17 0 30 3 30 7 0 4 11 3 25 -2 15 -6 26 -6 30 0 4
6 13 7 23 1 11 -6 24 -6 34 0 11 6 19 6 23 -1 3 -5 4 -10 1 -10 -3 0 -1 -11 4
-25 6 -15 6 -26 0 -30 -6 -4 -7 -13 -1 -24 6 -10 6 -23 1 -31 -5 -8 -5 -21 0
-30 5 -9 5 -22 0 -30 -5 -8 -5 -21 0 -30 5 -9 5 -22 0 -30 -5 -8 -5 -21 0 -30
5 -9 5 -22 0 -30 -5 -8 -5 -21 0 -30 5 -9 5 -22 0 -30 -5 -8 -5 -21 0 -30 5
-9 5 -22 0 -30 -5 -8 -5 -21 0 -30 5 -9 5 -22 0 -30 -5 -8 -5 -21 0 -30 5 -9
5 -22 0 -30 -5 -8 -5 -21 0 -30 5 -9 5 -22 0 -30 -5 -8 -5 -21 0 -30 5 -9 5
-22 0 -30 -5 -8 -5 -21 0 -30 5 -9 5 -22 0 -30 -5 -8 -5 -21 0 -30 5 -9 5 -22
0 -30 -5 -8 -5 -21 0 -30 5 -9 5 -22 0 -30 -5 -8 -5 -21 0 -30 5 -9 5 -22 0
-30 -5 -8 -5 -21 0 -30 5 -9 5 -22 0 -30 -5 -8 -5 -21 0 -30 5 -9 5 -22 0 -30
-5 -8 -5 -21 0 -30 5 -9 5 -22 0 -30 -5 -8 -5 -21 0 -30 5 -9 5 -22 0 -30 -5
-8 -5 -21 0 -30 5 -9 5 -22 0 -30 -4 -7 -5 -20 -2 -29 7 -19 7 -63 0 -82 -3
-9 -2 -22 2 -29 5 -8 5 -21 0 -30 -5 -9 -5 -22 0 -30 4 -7 5 -23 0 -35 -4 -11
-4 -28 0 -36 5 -8 5 -21 0 -29 -4 -7 -4 -24 1 -37 5 -13 5 -23 -1 -23 -5 0 -5
-12 0 -29 4 -15 4 -34 0 -42 -5 -7 -5 -20 0 -29 5 -9 5 -22 0 -30 -5 -8 -5
-21 -1 -29 5 -9 5 -25 1 -36 -4 -11 -4 -27 1 -36 4 -8 4 -21 -1 -29 -4 -7 -4
-24 1 -37 5 -13 5 -23 -1 -23 -5 0 -5 -12 0 -29 4 -15 4 -34 0 -42 -5 -7 -5
-20 0 -29 5 -9 5 -22 0 -30 -5 -8 -5 -21 -1 -29 5 -9 5 -25 1 -36 -4 -11 -4
-27 1 -36 4 -8 4 -21 -1 -29 -4 -7 -4 -24 1 -37 5 -13 5 -23 -1 -23 -5 0 -5
-12 0 -29 4 -15 4 -34 0 -42 -5 -7 -5 -20 0 -29 5 -9 5 -22 0 -30 -5 -8 -5
-21 -1 -29 5 -9 5 -25 1 -36 -4 -11 -4 -27 1 -36 4 -8 4 -21 -1 -29 -4 -7 -4
-24 1 -37 5 -12 5 -23 1 -23 -4 0 -7 -22 -7 -50 0 -27 3 -50 7 -50 4 0 3 -13
-2 -30 -5 -17 -5 -30 0 -30 5 0 5 -13 0 -30 -5 -17 -5 -30 0 -30 5 0 5 -13 0
-30 -5 -17 -5 -30 0 -30 5 0 5 -13 0 -30 -5 -17 -5 -30 0 -30 5 0 5 -13 0 -30
-5 -17 -5 -30 0 -30 5 0 5 -13 0 -30 -5 -17 -5 -30 0 -30 5 0 5 -13 0 -30 -5
-17 -5 -30 0 -30 5 0 5 -13 0 -30 -5 -17 -5 -30 0 -30 5 0 5 -13 0 -30 -5 -17
-5 -30 0 -30 5 0 5 -13 0 -30 -5 -17 -5 -30 0 -30 5 0 5 -13 0 -30 -5 -17 -5
-30 0 -30 5 0 5 -13 0 -30 -5 -17 -5 -30 0 -30 5 0 5 -13 0 -30 -5 -17 -5 -30
0 -30 5 0 5 -13 0 -30 -5 -17 -5 -30 0 -30 5 0 5 -13 0 -30 -5 -17 -5 -30 0
-30 5 0 5 -13 0 -30 -5 -17 -5 -30 0 -30 5 0 5 -13 0 -30 -5 -16 -6 -30 -2
-30 8 0 7 -68 -1 -76 -3 -3 -2 -17 3 -30 6 -14 6 -24 0 -24 -5 0 -5 -12 0 -30
5 -17 5 -30 0 -30 -5 0 -5 -13 0 -30 5 -17 5 -30 0 -30 -5 0 -5 -13 0 -30 5
-17 5 -30 0 -30 -5 0 -5 -13 0 -30 5 -17 5 -30 0 -30 -5 0 -5 -13 0 -30 5 -17
5 -30 0 -30 -5 0 -5 -13 0 -30 5 -17 5 -30 0 -30 -5 0 -5 -13 0 -30 5 -17 5
-30 0 -30 -5 0 -5 -13 0 -30 5 -17 5 -30 0 -30 -5 0 -5 -13 0 -30 5 -17 5 -30
0 -30 -5 0 -5 -13 0 -30 5 -17 5 -30 0 -30 -5 0 -5 -13 0 -30 5 -19 5 -30 -1
-30 -6 0 -7 -4 -4 -10 3 -5 8 -40 10 -77 2 -38 6 -81 10 -98 4 -16 8 -37 10
-45 2 -8 4 -16 5 -17 2 -2 3 -6 5 -10 1 -5 8 -21 15 -38 7 -16 14 -32 14 -35
8 -46 189 -250 221 -250 8 0 15 -4 15 -9 0 -13 142 -72 212 -87 50 -11 211
-13 803 -11 l740 2 73 27 c40 14 102 45 138 69 75 48 171 149 200 208 10 23
23 41 27 41 5 0 6 4 2 9 -3 5 -1 12 5 16 18 11 51 140 55 217 2 43 6 82 9 86
2 4 1 14 -4 22 -5 8 -5 21 0 30 5 9 5 22 0 30 -4 7 -5 23 0 35 4 11 4 28 0 36
-5 8 -5 21 0 29 4 7 4 24 -1 37 -5 13 -5 23 1 23 5 0 5 12 0 29 -4 15 -4 34 0
42 5 7 5 20 0 29 -5 9 -5 22 0 30 5 8 5 21 1 29 -5 9 -5 25 -1 36 4 11 4 27
-1 36 -4 8 -4 21 1 29 4 7 4 24 -1 37 -5 12 -5 23 -1 23 4 0 6 21 4 47 -1 27
-3 54 -2 61 0 6 0 19 0 27 0 8 0 22 0 30 0 8 0 22 0 30 0 8 0 22 0 30 0 8 0
22 0 30 0 8 0 22 0 30 0 8 0 22 0 30 0 8 0 22 0 30 0 8 0 22 0 30 0 8 0 22 0
30 0 8 0 22 0 30 0 8 0 22 0 30 0 8 0 22 0 30 0 8 0 22 0 30 0 8 0 22 0 30 0
8 0 22 0 30 0 8 0 22 0 30 0 8 0 22 0 30 0 8 0 22 0 30 0 8 0 22 0 30 0 8 0
22 0 30 0 8 0 22 0 30 0 8 0 22 0 30 0 8 0 22 0 30 0 8 0 22 0 30 0 8 0 22 0
30 0 8 0 22 0 30 0 8 0 22 0 30 0 8 0 22 0 30 0 8 0 22 0 30 0 8 0 22 0 30 0
8 0 22 0 30 0 8 0 22 0 30 0 8 0 22 0 30 0 8 0 22 0 30 0 8 0 22 0 30 0 8 0
22 0 30 0 8 0 22 0 30 0 8 0 22 0 30 0 8 0 22 0 30 0 8 0 22 0 30 0 8 0 22 0
30 0 8 0 22 0 30 0 8 0 22 0 30 0 8 0 22 0 30 0 8 0 22 0 30 0 8 0 22 0 30 0
8 0 22 0 30 0 8 0 22 0 30 0 8 0 22 0 30 0 8 0 22 0 30 0 8 0 22 0 30 0 8 0
22 0 30 0 8 0 22 0 30 0 8 0 22 0 30 0 8 0 22 0 30 0 8 0 22 0 30 0 8 0 22 0
30 0 8 0 22 0 30 0 8 0 22 0 30 0 8 0 22 0 30 0 8 0 22 0 30 0 8 0 22 0 30 0
8 0 22 0 30 0 8 0 22 0 30 0 8 0 22 0 30 0 8 0 22 0 30 0 8 0 22 0 30 0 8 0
22 0 30 0 8 0 22 0 30 0 8 0 22 0 30 0 8 0 22 0 30 0 8 0 22 0 30 0 8 0 22 0
30 0 8 0 22 0 30 0 8 0 22 0 30 0 8 0 22 0 30 0 8 0 22 0 30 0 8 0 22 0 30 0
8 0 22 0 30 0 8 0 21 0 28 1 6 -1 29 -2 50 -2 21 0 43 4 50 3 6 3 18 -2 27 -5
9 -5 22 0 30 5 8 5 21 1 29 -5 9 -5 25 -1 36 4 11 4 27 -1 36 -4 8 -4 21 1 29
4 7 4 24 -1 37 -5 13 -5 23 1 23 5 0 5 12 0 29 -4 15 -4 34 0 42 5 7 5 20 0
29 -5 9 -5 22 0 30 5 8 5 21 1 29 -5 9 -5 25 -1 36 4 11 4 27 -1 36 -4 8 -4
21 1 29 4 7 4 24 -1 37 -5 13 -5 23 1 23 5 0 5 12 0 29 -4 15 -4 34 0 42 5 7
5 20 0 29 -5 9 -5 22 0 30 5 8 5 21 1 29 -5 9 -5 25 -1 36 4 11 4 27 -1 36 -4
8 -4 21 1 29 4 7 4 24 -1 37 -5 13 -5 23 1 23 5 0 5 12 0 29 -4 15 -4 34 0 42
5 7 5 20 0 29 -5 9 -5 22 0 30 5 8 5 21 1 29 -5 9 -5 25 -1 36 4 11 4 27 -1
36 -4 8 -4 21 1 29 5 8 5 21 -1 31 -5 11 -5 20 0 23 5 3 7 15 4 25 -3 10 0 22
6 25 6 4 11 4 11 -1 0 -4 25 -8 55 -8 30 0 55 3 55 7 0 4 11 3 24 -2 15 -5 27
-5 34 2 6 6 12 6 16 -1 4 -7 15 -7 31 -1 15 6 27 6 30 0 3 -6 15 -6 30 0 15 6
27 6 30 0 3 -6 15 -6 30 0 14 5 25 6 25 2 0 -8 85 -6 107 2 7 3 15 1 18 -4 3
-6 15 -6 30 0 14 5 25 6 25 2 0 -4 25 -7 55 -7 30 0 55 3 55 7 0 4 11 3 24 -2
15 -5 27 -5 34 2 6 6 12 6 16 -1 4 -7 15 -7 31 -1 15 6 27 6 30 0 3 -6 15 -6
30 0 14 5 25 6 25 2 0 -8 85 -6 107 2 7 3 15 1 18 -4 3 -6 15 -6 30 0 15 6 27
6 30 0 3 -6 15 -6 30 0 14 5 25 6 25 2 0 -4 38 -7 85 -7 47 0 85 3 85 7 0 4
11 3 24 -2 15 -5 27 -5 34 2 6 6 12 6 16 -1 4 -7 15 -7 31 -1 15 6 27 6 30 0
3 -6 15 -6 30 0 15 6 27 6 30 0 3 -6 15 -6 30 0 15 6 27 6 30 0 3 -6 15 -6 30
0 14 5 25 6 25 2 0 -4 38 -7 85 -7 47 0 85 3 85 7 0 4 11 3 24 -2 15 -5 27 -5
34 2 6 6 12 6 16 -1 4 -7 15 -7 31 -1 15 6 27 6 30 -1 4 -5 11 -7 16 -3 5 3
35 7 67 9 133 7 298 84 386 180 46 51 66 76 66 84 0 5 4 11 8 13 11 5 52 77
52 93 0 7 5 15 12 17 6 2 12 15 14 29 1 13 3 25 4 27 2 1 3 5 4 10 1 4 5 16 9
27 16 50 18 163 18 810 0 435 -4 708 -10 740 -6 28 -12 60 -15 73 -3 12 -8 28
-13 35 -4 6 -9 19 -10 28 -9 60 -189 279 -229 279 -8 0 -14 4 -14 9 0 12 -130
69 -187 82 -27 6 -79 12 -116 15 -37 2 -72 6 -77 9 -6 4 -10 2 -10 -4 0 -6
-11 -6 -30 -1 -17 5 -30 5 -30 0 0 -5 -13 -5 -30 0 -17 5 -30 5 -30 0 0 -5
-13 -5 -30 0 -17 5 -30 5 -30 0 0 -5 -13 -5 -30 0 -17 5 -30 5 -30 0 0 -5 -13
-5 -30 0 -17 5 -30 5 -30 0 0 -5 -13 -5 -30 0 -17 5 -30 5 -30 0 0 -5 -12 -5
-28 -1 -15 5 -37 5 -49 0 -13 -5 -25 -4 -28 1 -3 6 -15 6 -30 0 -13 -5 -26 -6
-29 -2 -5 8 -80 6 -103 -2 -7 -3 -13 -1 -13 4 0 5 -13 5 -30 0 -16 -5 -32 -5
-35 0 -3 5 -19 5 -35 0 -16 -5 -32 -5 -35 0 -3 5 -19 5 -35 0 -17 -5 -30 -5
-30 0 0 5 -13 5 -30 0 -17 -5 -30 -5 -30 0 0 5 -13 5 -30 0 -17 -5 -30 -5 -30
0 0 5 -13 5 -30 0 -16 -5 -32 -5 -35 0 -3 5 -19 5 -35 0 -16 -5 -32 -5 -35 0
-3 5 -19 5 -35 0 -17 -5 -30 -5 -30 0 0 5 -13 5 -30 0 -17 -5 -30 -5 -30 0 0
5 -13 5 -30 0 -17 -5 -30 -5 -30 0 0 5 -13 5 -30 0 -16 -5 -32 -5 -35 0 -3 5
-19 5 -35 0 -16 -5 -32 -5 -35 0 -3 5 -19 5 -35 0 -17 -5 -30 -5 -30 0 0 5
-13 5 -30 0 -17 -5 -30 -5 -30 0 0 5 -13 5 -30 0 -17 -5 -30 -5 -30 0 0 5 -13
5 -30 0 -16 -5 -32 -5 -35 0 -3 5 -19 5 -35 0 -16 -5 -32 -5 -35 0 -3 5 -19 5
-35 0 -17 -5 -30 -5 -30 0 0 5 -13 5 -29 0 -15 -4 -33 -5 -38 -1 -7 4 -11 332
-11 981 0 944 -2 1035 -22 1110 -5 19 -9 38 -9 43 0 4 -19 44 -43 89 -75 146
-231 277 -373 313 -16 5 -37 11 -45 13 -8 3 -346 7 -750 8 -587 2 -747 0 -795
-11z"/>
</g>
</svg>
